<svg xmlns="http://www.w3.org/2000/svg" fill="none" viewBox="0 0 50 50" height="50" width="50">
<path fill="#292D32" d="M35.2082 39.6071C34.5623 39.6071 33.9165 39.4196 33.354 39.0446L31.354 37.732C30.7915 37.357 30.5207 36.6488 30.7082 36.003C30.854 35.5238 30.9165 34.9612 30.9165 34.3362V25.857C30.9165 22.4612 28.7915 20.3363 25.3957 20.3363H11.2498C10.9998 20.3363 10.7707 20.3571 10.5415 20.378C10.104 20.3988 9.68735 20.2529 9.35402 19.9613C9.02068 19.6696 8.854 19.253 8.854 18.8155V13.0446C8.854 6.9196 13.1457 2.62793 19.2707 2.62793H36.979C43.104 2.62793 47.3957 6.9196 47.3957 13.0446V23.6695C47.3957 26.6904 46.3748 29.357 44.4998 31.1903C42.9998 32.7112 40.9165 33.6904 38.5415 33.9821V36.2945C38.5415 37.5445 37.854 38.6696 36.7707 39.253C36.2707 39.4821 35.729 39.6071 35.2082 39.6071ZM33.9582 35.6904L35.3123 36.4612C35.4373 36.3987 35.4373 36.2945 35.4373 36.2737V32.5029C35.4373 31.6487 36.1457 30.9404 36.9998 30.9404C39.1873 30.9404 41.0415 30.253 42.3123 28.9613C43.6248 27.6696 44.2915 25.8362 44.2915 23.6487V13.0237C44.2915 8.58624 41.4373 5.73208 36.9998 5.73208H19.2915C14.854 5.73208 11.9998 8.58624 11.9998 13.0237V17.1904H25.4165C30.4998 17.1904 34.0623 20.753 34.0623 25.8363V34.3153C34.0415 34.7945 34.0207 35.2529 33.9582 35.6904Z"></path>
<path fill="#292D32" d="M12.6457 47.3988C12.1874 47.3988 11.7082 47.2947 11.2707 47.0655C10.2915 46.5447 9.68732 45.5446 9.68732 44.4196V42.8363C7.85399 42.5446 6.22901 41.7737 5.02068 40.5654C3.43734 38.982 2.604 36.8154 2.604 34.3154V25.8363C2.604 21.128 5.68732 17.6696 10.2707 17.2321C10.604 17.2113 10.9165 17.1904 11.2498 17.1904H25.3957C30.479 17.1904 34.0415 20.753 34.0415 25.8363V34.3154C34.0415 35.232 33.9373 36.0863 33.7082 36.8571C32.7707 40.6071 29.5832 42.9613 25.3957 42.9613H20.2082L14.3123 46.8779C13.8123 47.2321 13.229 47.3988 12.6457 47.3988ZM11.2498 20.3154C10.9998 20.3154 10.7707 20.3363 10.5415 20.3571C7.5415 20.628 5.729 22.6905 5.729 25.8363V34.3154C5.729 35.982 6.24984 37.3779 7.22901 38.357C8.18734 39.3154 9.58316 39.8363 11.2498 39.8363C12.104 39.8363 12.8123 40.5446 12.8123 41.3988V44.1279L18.854 40.1071C19.104 39.9404 19.4165 39.8363 19.729 39.8363H25.3957C28.1457 39.8363 30.0832 38.4612 30.6873 36.0446C30.8332 35.5237 30.9165 34.9404 30.9165 34.3154V25.8363C30.9165 22.4405 28.7915 20.3154 25.3957 20.3154H11.2498Z"></path>
</svg>
