<svg xmlns="http://www.w3.org/2000/svg" fill="none" viewBox="0 0 50 50" height="50" width="50">
<path fill="#292D32" d="M24.9999 37.5238C18.3958 37.5238 13.0208 32.1488 13.0208 25.5447C13.0208 23.1697 13.7083 20.8572 15.0416 18.8988C15.5208 18.1905 16.4999 17.9822 17.2082 18.4613C17.9166 18.9405 18.1249 19.9197 17.6458 20.628C16.6666 22.0863 16.1666 23.7947 16.1666 25.5447C16.1666 30.4197 20.1457 34.3988 25.0207 34.3988C29.8957 34.3988 33.8749 30.4197 33.8749 25.5447C33.8749 20.6697 29.8957 16.6905 25.0207 16.6905C23.9791 16.6905 22.9791 16.8363 21.9999 17.128C21.1874 17.378 20.3124 16.9197 20.0416 16.0863C19.7916 15.253 20.2499 14.378 21.0832 14.128C22.3541 13.7322 23.6666 13.5447 25.0207 13.5447C31.6249 13.5447 36.9999 18.9197 36.9999 25.5238C36.9999 32.128 31.6041 37.5238 24.9999 37.5238Z"></path>
<path fill="#292D32" d="M20.0419 17.5029C19.6878 17.5029 19.3128 17.3779 19.0211 17.1279C18.3753 16.5654 18.3128 15.5654 18.8753 14.9196L22.3544 10.9404C22.9169 10.2946 23.9169 10.2113 24.5628 10.7946C25.2086 11.3571 25.2711 12.3571 24.7086 13.0029L21.2294 16.9821C20.8961 17.3154 20.4794 17.5029 20.0419 17.5029Z"></path>
<path fill="#292D32" d="M24.0829 20.4613C23.7704 20.4613 23.4371 20.3571 23.1663 20.1696L19.1246 17.2113C18.4371 16.7113 18.2704 15.7321 18.7913 15.0238C19.2913 14.3363 20.2705 14.1696 20.9788 14.6904L25.0204 17.6488C25.7079 18.1488 25.8746 19.1279 25.3538 19.8363C25.0413 20.2321 24.5621 20.4613 24.0829 20.4613Z"></path>
<path fill="#292D32" d="M31.2501 47.3988H18.7501C7.43758 47.3988 2.60425 42.5655 2.60425 31.253V18.753C2.60425 7.44051 7.43758 2.60718 18.7501 2.60718H31.2501C42.5626 2.60718 47.3959 7.44051 47.3959 18.753V31.253C47.3959 42.5655 42.5626 47.3988 31.2501 47.3988ZM18.7501 5.73218C9.14591 5.73218 5.72925 9.14884 5.72925 18.753V31.253C5.72925 40.8572 9.14591 44.2738 18.7501 44.2738H31.2501C40.8542 44.2738 44.2709 40.8572 44.2709 31.253V18.753C44.2709 9.14884 40.8542 5.73218 31.2501 5.73218H18.7501Z"></path>
</svg>
