<svg xmlns="http://www.w3.org/2000/svg" fill="none" viewBox="0 0 50 50" height="50" width="50">
<path fill="#292D32" d="M27.0832 30.7322H4.1665C3.31234 30.7322 2.604 30.0238 2.604 29.1697V12.503C2.604 7.04468 7.0415 2.60718 12.4998 2.60718H31.2498C32.104 2.60718 32.8123 3.31551 32.8123 4.16968V25.003C32.8123 28.1697 30.2498 30.7322 27.0832 30.7322ZM5.729 27.6072H27.0832C28.5207 27.6072 29.6873 26.4405 29.6873 25.003V5.73218H12.4998C8.77067 5.73218 5.729 8.77384 5.729 12.503V27.6072Z"></path>
<path fill="#292D32" d="M39.5832 43.2322H37.4998C36.6457 43.2322 35.9373 42.5238 35.9373 41.6697C35.9373 40.2322 34.7707 39.0655 33.3332 39.0655C31.8957 39.0655 30.729 40.2322 30.729 41.6697C30.729 42.5238 30.0207 43.2322 29.1665 43.2322H20.8332C19.979 43.2322 19.2707 42.5238 19.2707 41.6697C19.2707 40.2322 18.104 39.0655 16.6665 39.0655C15.229 39.0655 14.0623 40.2322 14.0623 41.6697C14.0623 42.5238 13.354 43.2322 12.4998 43.2322H10.4165C6.104 43.2322 2.604 39.7322 2.604 35.4197V29.1697C2.604 28.3155 3.31234 27.6072 4.1665 27.6072H27.0832C28.5207 27.6072 29.6873 26.4405 29.6873 25.003V10.4197C29.6873 9.56551 30.3957 8.85718 31.2498 8.85718H35.0832C37.1457 8.85718 39.0415 9.96137 40.0624 11.753L43.6248 17.9822C43.8957 18.4614 43.8957 19.0655 43.6248 19.5447C43.354 20.0239 42.8332 20.3155 42.2707 20.3155H39.5832C39.2915 20.3155 39.0623 20.5447 39.0623 20.8363V27.0863C39.0623 27.378 39.2915 27.6072 39.5832 27.6072H45.8332C46.6873 27.6072 47.3957 28.3155 47.3957 29.1697V35.4197C47.3957 39.7322 43.8957 43.2322 39.5832 43.2322ZM38.854 40.1072H39.5832C42.1665 40.1072 44.2707 38.003 44.2707 35.4197V30.7322H39.5832C37.5832 30.7322 35.9373 29.0863 35.9373 27.0863V20.8363C35.9373 18.8363 37.5623 17.1905 39.5832 17.1905L37.354 13.2947C36.8957 12.4822 36.0207 11.9822 35.0832 11.9822H32.8123V25.003C32.8123 28.1697 30.2498 30.7322 27.0832 30.7322H5.729V35.4197C5.729 38.003 7.83317 40.1072 10.4165 40.1072H11.1457C11.8332 37.7113 14.0415 35.9405 16.6665 35.9405C19.2915 35.9405 21.4998 37.7113 22.1873 40.1072H27.8331C28.5206 37.7113 30.729 35.9405 33.354 35.9405C35.979 35.9405 38.1665 37.7113 38.854 40.1072Z"></path>
<path fill="#292D32" d="M16.6667 47.3988C13.5 47.3988 10.9375 44.8363 10.9375 41.6696C10.9375 38.5029 13.5 35.9404 16.6667 35.9404C19.8333 35.9404 22.3958 38.5029 22.3958 41.6696C22.3958 44.8363 19.8333 47.3988 16.6667 47.3988ZM16.6667 39.0654C15.2292 39.0654 14.0625 40.2321 14.0625 41.6696C14.0625 43.1071 15.2292 44.2738 16.6667 44.2738C18.1042 44.2738 19.2708 43.1071 19.2708 41.6696C19.2708 40.2321 18.1042 39.0654 16.6667 39.0654Z"></path>
<path fill="#292D32" d="M33.3332 47.3988C30.1665 47.3988 27.604 44.8363 27.604 41.6696C27.604 38.5029 30.1665 35.9404 33.3332 35.9404C36.4998 35.9404 39.0623 38.5029 39.0623 41.6696C39.0623 44.8363 36.4998 47.3988 33.3332 47.3988ZM33.3332 39.0654C31.8957 39.0654 30.729 40.2321 30.729 41.6696C30.729 43.1071 31.8957 44.2738 33.3332 44.2738C34.7707 44.2738 35.9373 43.1071 35.9373 41.6696C35.9373 40.2321 34.7707 39.0654 33.3332 39.0654Z"></path>
<path fill="#292D32" d="M45.8333 30.7321H39.5833C37.5833 30.7321 35.9375 29.0863 35.9375 27.0863V20.8363C35.9375 18.8363 37.5833 17.1904 39.5833 17.1904H42.2709C42.8334 17.1904 43.3542 17.4821 43.625 17.9821L47.1875 24.2321C47.3125 24.4613 47.3958 24.7321 47.3958 25.0029V29.1696C47.3958 30.0238 46.6875 30.7321 45.8333 30.7321ZM39.5833 20.3154C39.2917 20.3154 39.0625 20.5446 39.0625 20.8363V27.0863C39.0625 27.3779 39.2917 27.6071 39.5833 27.6071H44.2708V25.4196L41.3542 20.3154H39.5833Z"></path>
</svg>
