<svg xmlns="http://www.w3.org/2000/svg" fill="none" viewBox="0 0 207 51" height="51" width="207">
<path fill="#222222" d="M19.056 50L11.04 38.624V50H2.832V14.48H11.04V33.968L19.056 23.216H28.704L17.904 36.608L28.944 50H19.056ZM39.7174 22.88C41.7654 22.88 43.5254 23.344 44.9974 24.272C46.4694 25.2 47.5574 26.464 48.2614 28.064V23.216H56.4214V50H48.2614V45.152C47.5574 46.752 46.4694 48.016 44.9974 48.944C43.5254 49.872 41.7654 50.336 39.7174 50.336C37.5094 50.336 35.5254 49.792 33.7654 48.704C32.0374 47.584 30.6614 45.984 29.6374 43.904C28.6454 41.824 28.1494 39.392 28.1494 36.608C28.1494 33.792 28.6454 31.36 29.6374 29.312C30.6614 27.232 32.0374 25.648 33.7654 24.56C35.5254 23.44 37.5094 22.88 39.7174 22.88ZM42.3574 30.08C40.5974 30.08 39.1734 30.656 38.0854 31.808C37.0294 32.96 36.5014 34.56 36.5014 36.608C36.5014 38.656 37.0294 40.256 38.0854 41.408C39.1734 42.56 40.5974 43.136 42.3574 43.136C44.0854 43.136 45.4934 42.544 46.5814 41.36C47.7014 40.176 48.2614 38.592 48.2614 36.608C48.2614 34.592 47.7014 33.008 46.5814 31.856C45.4934 30.672 44.0854 30.08 42.3574 30.08ZM67.8806 14.48V50H59.6726V14.48H67.8806ZM79.3556 14.48V50H71.1476V14.48H79.3556ZM108.063 35.888C108.063 36.56 107.983 37.296 107.823 38.096H89.2466C89.3426 40.112 89.8546 41.568 90.7826 42.464C91.7106 43.328 92.8946 43.76 94.3346 43.76C95.5506 43.76 96.5586 43.456 97.3586 42.848C98.1586 42.24 98.6866 41.456 98.9426 40.496H107.631C107.279 42.384 106.511 44.08 105.327 45.584C104.143 47.056 102.639 48.224 100.815 49.088C98.9906 49.92 96.9586 50.336 94.7186 50.336C92.0946 50.336 89.7586 49.792 87.7106 48.704C85.6946 47.584 84.1106 45.984 82.9586 43.904C81.8066 41.824 81.2306 39.392 81.2306 36.608C81.2306 33.792 81.7906 31.36 82.9106 29.312C84.0626 27.232 85.6626 25.648 87.7106 24.56C89.7586 23.44 92.0946 22.88 94.7186 22.88C97.3746 22.88 99.7106 23.424 101.727 24.512C103.743 25.6 105.295 27.136 106.383 29.12C107.503 31.072 108.063 33.328 108.063 35.888ZM99.7586 34.64C99.7906 32.88 99.3106 31.568 98.3186 30.704C97.3586 29.808 96.1586 29.36 94.7186 29.36C93.2146 29.36 91.9666 29.808 90.9746 30.704C89.9826 31.6 89.4226 32.912 89.2946 34.64H99.7586ZM119.685 22.88C123.077 22.88 125.781 23.728 127.797 25.424C129.845 27.12 131.125 29.36 131.637 32.144H123.957C123.733 31.056 123.221 30.208 122.421 29.6C121.653 28.96 120.677 28.64 119.493 28.64C118.565 28.64 117.861 28.848 117.381 29.264C116.901 29.648 116.661 30.208 116.661 30.944C116.661 31.776 117.093 32.4 117.957 32.816C118.853 33.232 120.245 33.648 122.133 34.064C124.181 34.544 125.861 35.04 127.173 35.552C128.485 36.032 129.621 36.832 130.581 37.952C131.541 39.072 132.021 40.576 132.021 42.464C132.021 44 131.605 45.36 130.773 46.544C129.941 47.728 128.741 48.656 127.173 49.328C125.605 50 123.749 50.336 121.605 50.336C117.989 50.336 115.093 49.536 112.917 47.936C110.741 46.336 109.413 44.048 108.933 41.072H116.853C116.981 42.224 117.461 43.104 118.293 43.712C119.157 44.32 120.261 44.624 121.605 44.624C122.533 44.624 123.237 44.416 123.717 44C124.197 43.552 124.437 42.976 124.437 42.272C124.437 41.344 123.989 40.688 123.093 40.304C122.229 39.888 120.805 39.456 118.821 39.008C116.837 38.592 115.205 38.144 113.925 37.664C112.645 37.184 111.541 36.416 110.613 35.36C109.685 34.272 109.221 32.8 109.221 30.944C109.221 28.544 110.133 26.608 111.957 25.136C113.781 23.632 116.357 22.88 119.685 22.88Z"></path>
<rect fill="#FF3E37" rx="12" height="24" width="70" y="5" x="121"></rect>
<path fill="white" d="M148.334 21L145.562 17.57V21H143.966V10.64H145.562V16.576L148.306 13.286H150.224L146.864 17.122L150.308 21H148.334ZM150.425 11.046C150.425 10.7753 150.518 10.5513 150.705 10.374C150.891 10.1967 151.139 10.108 151.447 10.108C151.755 10.108 152.002 10.1967 152.189 10.374C152.385 10.5513 152.483 10.7753 152.483 11.046C152.483 11.3167 152.385 11.536 152.189 11.704C152.002 11.872 151.755 11.956 151.447 11.956C151.139 11.956 150.891 11.872 150.705 11.704C150.518 11.536 150.425 11.3167 150.425 11.046ZM152.245 13.286V21H150.649V13.286H152.245ZM156.57 13.188C157.27 13.188 157.867 13.3607 158.362 13.706C158.857 14.0513 159.202 14.5087 159.398 15.078V10.64H161.008V21H159.398V19.208C159.202 19.7773 158.857 20.2347 158.362 20.58C157.867 20.9253 157.27 21.098 156.57 21.098C155.898 21.098 155.296 20.9393 154.764 20.622C154.241 20.3047 153.831 19.8473 153.532 19.25C153.233 18.6527 153.084 17.948 153.084 17.136C153.084 16.3333 153.233 15.6333 153.532 15.036C153.831 14.4387 154.241 13.9813 154.764 13.664C155.296 13.3467 155.898 13.188 156.57 13.188ZM157.06 14.588C156.351 14.588 155.781 14.8167 155.352 15.274C154.932 15.722 154.722 16.3427 154.722 17.136C154.722 17.9293 154.932 18.5547 155.352 19.012C155.781 19.46 156.351 19.684 157.06 19.684C157.508 19.684 157.909 19.5813 158.264 19.376C158.619 19.1613 158.899 18.8627 159.104 18.48C159.309 18.0973 159.412 17.6493 159.412 17.136C159.412 16.632 159.309 16.1887 159.104 15.806C158.899 15.414 158.619 15.1153 158.264 14.91C157.909 14.6953 157.508 14.588 157.06 14.588ZM164.757 13.188C165.663 13.188 166.386 13.4213 166.927 13.888C167.478 14.3453 167.814 14.9613 167.935 15.736H166.423C166.358 15.316 166.176 14.98 165.877 14.728C165.588 14.4667 165.201 14.336 164.715 14.336C164.314 14.336 164.001 14.434 163.777 14.63C163.563 14.8167 163.455 15.0733 163.455 15.4C163.455 15.6427 163.535 15.8387 163.693 15.988C163.852 16.1373 164.048 16.254 164.281 16.338C164.524 16.422 164.865 16.5153 165.303 16.618C165.882 16.7487 166.349 16.884 166.703 17.024C167.067 17.164 167.375 17.388 167.627 17.696C167.889 17.9947 168.019 18.4053 168.019 18.928C168.019 19.572 167.772 20.0947 167.277 20.496C166.792 20.8973 166.134 21.098 165.303 21.098C164.342 21.098 163.563 20.874 162.965 20.426C162.377 19.978 162.023 19.3527 161.901 18.55H163.455C163.502 18.97 163.689 19.3107 164.015 19.572C164.342 19.8333 164.771 19.964 165.303 19.964C165.686 19.964 165.985 19.866 166.199 19.67C166.423 19.4647 166.535 19.208 166.535 18.9C166.535 18.6293 166.451 18.4147 166.283 18.256C166.115 18.0973 165.905 17.976 165.653 17.892C165.401 17.7987 165.056 17.7053 164.617 17.612C164.057 17.4813 163.6 17.3507 163.245 17.22C162.9 17.0893 162.601 16.8793 162.349 16.59C162.107 16.2913 161.985 15.89 161.985 15.386C161.985 14.7327 162.228 14.2053 162.713 13.804C163.208 13.3933 163.889 13.188 164.757 13.188Z"></path>
</svg>
