<svg xmlns="http://www.w3.org/2000/svg" fill="none" viewBox="0 0 207 51" height="51" width="207">
<path fill="#222222" d="M19.056 50L11.04 38.624V50H2.832V14.48H11.04V33.968L19.056 23.216H28.704L17.904 36.608L28.944 50H19.056ZM39.7174 22.88C41.7654 22.88 43.5254 23.344 44.9974 24.272C46.4694 25.2 47.5574 26.464 48.2614 28.064V23.216H56.4214V50H48.2614V45.152C47.5574 46.752 46.4694 48.016 44.9974 48.944C43.5254 49.872 41.7654 50.336 39.7174 50.336C37.5094 50.336 35.5254 49.792 33.7654 48.704C32.0374 47.584 30.6614 45.984 29.6374 43.904C28.6454 41.824 28.1494 39.392 28.1494 36.608C28.1494 33.792 28.6454 31.36 29.6374 29.312C30.6614 27.232 32.0374 25.648 33.7654 24.56C35.5254 23.44 37.5094 22.88 39.7174 22.88ZM42.3574 30.08C40.5974 30.08 39.1734 30.656 38.0854 31.808C37.0294 32.96 36.5014 34.56 36.5014 36.608C36.5014 38.656 37.0294 40.256 38.0854 41.408C39.1734 42.56 40.5974 43.136 42.3574 43.136C44.0854 43.136 45.4934 42.544 46.5814 41.36C47.7014 40.176 48.2614 38.592 48.2614 36.608C48.2614 34.592 47.7014 33.008 46.5814 31.856C45.4934 30.672 44.0854 30.08 42.3574 30.08ZM67.8806 14.48V50H59.6726V14.48H67.8806ZM79.3556 14.48V50H71.1476V14.48H79.3556ZM108.063 35.888C108.063 36.56 107.983 37.296 107.823 38.096H89.2466C89.3426 40.112 89.8546 41.568 90.7826 42.464C91.7106 43.328 92.8946 43.76 94.3346 43.76C95.5506 43.76 96.5586 43.456 97.3586 42.848C98.1586 42.24 98.6866 41.456 98.9426 40.496H107.631C107.279 42.384 106.511 44.08 105.327 45.584C104.143 47.056 102.639 48.224 100.815 49.088C98.9906 49.92 96.9586 50.336 94.7186 50.336C92.0946 50.336 89.7586 49.792 87.7106 48.704C85.6946 47.584 84.1106 45.984 82.9586 43.904C81.8066 41.824 81.2306 39.392 81.2306 36.608C81.2306 33.792 81.7906 31.36 82.9106 29.312C84.0626 27.232 85.6626 25.648 87.7106 24.56C89.7586 23.44 92.0946 22.88 94.7186 22.88C97.3746 22.88 99.7106 23.424 101.727 24.512C103.743 25.6 105.295 27.136 106.383 29.12C107.503 31.072 108.063 33.328 108.063 35.888ZM99.7586 34.64C99.7906 32.88 99.3106 31.568 98.3186 30.704C97.3586 29.808 96.1586 29.36 94.7186 29.36C93.2146 29.36 91.9666 29.808 90.9746 30.704C89.9826 31.6 89.4226 32.912 89.2946 34.64H99.7586ZM119.685 22.88C123.077 22.88 125.781 23.728 127.797 25.424C129.845 27.12 131.125 29.36 131.637 32.144H123.957C123.733 31.056 123.221 30.208 122.421 29.6C121.653 28.96 120.677 28.64 119.493 28.64C118.565 28.64 117.861 28.848 117.381 29.264C116.901 29.648 116.661 30.208 116.661 30.944C116.661 31.776 117.093 32.4 117.957 32.816C118.853 33.232 120.245 33.648 122.133 34.064C124.181 34.544 125.861 35.04 127.173 35.552C128.485 36.032 129.621 36.832 130.581 37.952C131.541 39.072 132.021 40.576 132.021 42.464C132.021 44 131.605 45.36 130.773 46.544C129.941 47.728 128.741 48.656 127.173 49.328C125.605 50 123.749 50.336 121.605 50.336C117.989 50.336 115.093 49.536 112.917 47.936C110.741 46.336 109.413 44.048 108.933 41.072H116.853C116.981 42.224 117.461 43.104 118.293 43.712C119.157 44.32 120.261 44.624 121.605 44.624C122.533 44.624 123.237 44.416 123.717 44C124.197 43.552 124.437 42.976 124.437 42.272C124.437 41.344 123.989 40.688 123.093 40.304C122.229 39.888 120.805 39.456 118.821 39.008C116.837 38.592 115.205 38.144 113.925 37.664C112.645 37.184 111.541 36.416 110.613 35.36C109.685 34.272 109.221 32.8 109.221 30.944C109.221 28.544 110.133 26.608 111.957 25.136C113.781 23.632 116.357 22.88 119.685 22.88Z"></path>
<rect fill="#FF3E37" rx="12" height="24" width="57" y="5" x="120"></rect>
<path fill="white" d="M143.612 14.16C144.527 14.16 145.255 14.4493 145.796 15.028C146.347 15.6067 146.622 16.4327 146.622 17.506V22H145.026V17.674C145.026 17.002 144.858 16.484 144.522 16.12C144.186 15.7467 143.724 15.56 143.136 15.56C142.511 15.56 142.011 15.7607 141.638 16.162C141.274 16.554 141.092 17.1327 141.092 17.898V22H139.496V17.674C139.496 17.002 139.328 16.484 138.992 16.12C138.656 15.7467 138.194 15.56 137.606 15.56C136.981 15.56 136.481 15.7607 136.108 16.162C135.744 16.554 135.562 17.1327 135.562 17.898V22H133.966V14.286H135.562V15.896C135.758 15.336 136.085 14.9067 136.542 14.608C136.999 14.3093 137.536 14.16 138.152 14.16C138.796 14.16 139.351 14.3187 139.818 14.636C140.294 14.9533 140.639 15.4107 140.854 16.008C141.078 15.4293 141.437 14.9767 141.932 14.65C142.427 14.3233 142.987 14.16 143.612 14.16ZM154.954 17.772C154.954 18.0333 154.935 18.262 154.898 18.458H148.962C148.99 19.2513 149.209 19.8393 149.62 20.222C150.03 20.6047 150.539 20.796 151.146 20.796C151.678 20.796 152.126 20.6607 152.49 20.39C152.863 20.1193 153.092 19.76 153.176 19.312H154.884C154.781 19.8533 154.566 20.334 154.24 20.754C153.913 21.174 153.488 21.5053 152.966 21.748C152.443 21.9813 151.86 22.098 151.216 22.098C150.469 22.098 149.806 21.9393 149.228 21.622C148.658 21.3047 148.21 20.8473 147.884 20.25C147.557 19.6527 147.394 18.948 147.394 18.136C147.394 17.3333 147.557 16.6333 147.884 16.036C148.21 15.4387 148.658 14.9813 149.228 14.664C149.806 14.3467 150.469 14.188 151.216 14.188C151.972 14.188 152.63 14.3467 153.19 14.664C153.759 14.972 154.193 15.4013 154.492 15.952C154.8 16.4933 154.954 17.1 154.954 17.772ZM153.344 17.73C153.362 17.226 153.274 16.806 153.078 16.47C152.891 16.1247 152.63 15.8727 152.294 15.714C151.967 15.546 151.608 15.462 151.216 15.462C150.59 15.462 150.068 15.6533 149.648 16.036C149.228 16.4187 148.999 16.9833 148.962 17.73H153.344ZM160.107 14.16C161.003 14.16 161.721 14.4493 162.263 15.028C162.804 15.6067 163.075 16.4327 163.075 17.506V22H161.479V17.674C161.479 16.9833 161.301 16.4513 160.947 16.078C160.592 15.6953 160.107 15.504 159.491 15.504C158.856 15.504 158.347 15.7093 157.965 16.12C157.582 16.5213 157.391 17.114 157.391 17.898V22H155.795V14.286H157.391V15.98C157.596 15.4013 157.941 14.9533 158.427 14.636C158.912 14.3187 159.472 14.16 160.107 14.16Z"></path>
</svg>
