<svg xmlns="http://www.w3.org/2000/svg" fill="none" viewBox="0 0 50 50" height="50" width="50">
<path fill="#292D32" d="M8.18766 34.6487C7.79183 34.6487 7.396 34.5028 7.0835 34.1903C6.47933 33.5862 6.47933 32.5862 7.0835 31.982L31.9793 7.08618C32.5835 6.48201 33.5835 6.48201 34.1877 7.08618C34.7918 7.69035 34.7918 8.69035 34.1877 9.29451L9.29183 34.2112C9.00016 34.5028 8.5835 34.6487 8.18766 34.6487Z"></path>
<path fill="#292D32" d="M23.1252 39.6488C22.7293 39.6488 22.3335 39.503 22.021 39.1905C21.4168 38.5863 21.4168 37.5863 22.021 36.9822L24.521 34.4822C25.1252 33.878 26.1252 33.878 26.7293 34.4822C27.3335 35.0863 27.3335 36.0863 26.7293 36.6905L24.2293 39.1905C23.9377 39.4822 23.5418 39.6488 23.1252 39.6488Z"></path>
<path fill="#292D32" d="M28.7292 34.0445C28.3333 34.0445 27.9375 33.8987 27.625 33.5862C27.0208 32.982 27.0208 31.982 27.625 31.3778L32.6042 26.3987C33.2083 25.7945 34.2083 25.7945 34.8125 26.3987C35.4167 27.0028 35.4167 28.0028 34.8125 28.607L29.8333 33.5862C29.5417 33.8778 29.125 34.0445 28.7292 34.0445Z"></path>
<path fill="#292D32" d="M23.1252 47.3987C21.0836 47.3987 19.0419 46.1487 16.5627 43.6696L6.33356 33.4404C1.35439 28.4612 1.37523 25.2529 6.39606 20.2321L20.2294 6.39875C25.2502 1.37791 28.4586 1.35708 33.4377 6.33625L43.6669 16.5654C48.6461 21.5446 48.6252 24.7529 43.6044 29.7737L29.7711 43.6071C27.2502 46.1279 25.1877 47.3987 23.1252 47.3987ZM26.8752 5.73208C25.7919 5.73208 24.4169 6.62791 22.4377 8.60708L8.6044 22.4404C6.62523 24.4196 5.72939 25.7946 5.72939 26.8571C5.72939 27.9404 6.56273 29.2529 8.54189 31.2321L18.7711 41.4612C20.7502 43.4404 22.0419 44.2737 23.1252 44.2737C23.1252 44.2737 23.1252 44.2737 23.1461 44.2737C24.2294 44.2737 25.5836 43.3779 27.5627 41.3987L41.3961 27.5654C43.3752 25.5862 44.2711 24.2112 44.2711 23.1487C44.2711 22.0654 43.4377 20.7529 41.4586 18.7737L31.2294 8.54458C29.2711 6.56541 27.9586 5.73208 26.8752 5.73208Z"></path>
<path fill="#292D32" d="M45.8332 47.3987H4.1665C3.31234 47.3987 2.604 46.6903 2.604 45.8362C2.604 44.982 3.31234 44.2737 4.1665 44.2737H45.8332C46.6873 44.2737 47.3957 44.982 47.3957 45.8362C47.3957 46.6903 46.6873 47.3987 45.8332 47.3987Z"></path>
</svg>
