<svg width="130" height="36" viewBox="0 0 130 36" fill="none" xmlns="http://www.w3.org/2000/svg">
<path d="M16.368 35.52L8.20799 24.288V35.52H-1.30534e-05V3.8147e-06H8.20799V19.632L16.32 8.736H26.448L15.312 22.176L26.544 35.52H16.368ZM25.6399 22.08C25.6399 19.328 26.1519 16.912 27.1759 14.832C28.2319 12.752 29.6559 11.152 31.4479 10.032C33.2399 8.912 35.2399 8.352 37.4479 8.352C39.3359 8.352 40.9839 8.736 42.3919 9.504C43.8319 10.272 44.9359 11.28 45.7039 12.528V8.736H53.9119V35.52H45.7039V31.728C44.9039 32.976 43.7839 33.984 42.3439 34.752C40.9359 35.52 39.2879 35.904 37.3999 35.904C35.2239 35.904 33.2399 35.344 31.4479 34.224C29.6559 33.072 28.2319 31.456 27.1759 29.376C26.1519 27.264 25.6399 24.832 25.6399 22.08ZM45.7039 22.128C45.7039 20.08 45.1279 18.464 43.9759 17.28C42.8559 16.096 41.4799 15.504 39.8479 15.504C38.2159 15.504 36.8239 16.096 35.6719 17.28C34.5519 18.432 33.9919 20.032 33.9919 22.08C33.9919 24.128 34.5519 25.76 35.6719 26.976C36.8239 28.16 38.2159 28.752 39.8479 28.752C41.4799 28.752 42.8559 28.16 43.9759 26.976C45.1279 25.792 45.7039 24.176 45.7039 22.128ZM65.658 3.8147e-06V35.52H57.45V3.8147e-06H65.658ZM77.4142 3.8147e-06V35.52H69.2062V3.8147e-06H77.4142ZM106.21 21.696C106.21 22.464 106.162 23.264 106.066 24.096H87.4905C87.6185 25.76 88.1465 27.04 89.0745 27.936C90.0345 28.8 91.2025 29.232 92.5785 29.232C94.6265 29.232 96.0505 28.368 96.8505 26.64H105.586C105.138 28.4 104.322 29.984 103.138 31.392C101.986 32.8 100.53 33.904 98.7705 34.704C97.0105 35.504 95.0425 35.904 92.8665 35.904C90.2425 35.904 87.9065 35.344 85.8585 34.224C83.8105 33.104 82.2105 31.504 81.0585 29.424C79.9065 27.344 79.3305 24.912 79.3305 22.128C79.3305 19.344 79.8905 16.912 81.0105 14.832C82.1625 12.752 83.7625 11.152 85.8105 10.032C87.8585 8.912 90.2105 8.352 92.8665 8.352C95.4585 8.352 97.7625 8.896 99.7785 9.984C101.794 11.072 103.362 12.624 104.482 14.64C105.634 16.656 106.21 19.008 106.21 21.696ZM97.8105 19.536C97.8105 18.128 97.3305 17.008 96.3705 16.176C95.4105 15.344 94.2105 14.928 92.7705 14.928C91.3945 14.928 90.2265 15.328 89.2665 16.128C88.3385 16.928 87.7625 18.064 87.5385 19.536H97.8105ZM119.037 35.904C116.701 35.904 114.621 35.504 112.797 34.704C110.973 33.904 109.533 32.816 108.477 31.44C107.421 30.032 106.829 28.464 106.701 26.736H114.813C114.909 27.664 115.341 28.416 116.109 28.992C116.877 29.568 117.821 29.856 118.941 29.856C119.965 29.856 120.749 29.664 121.293 29.28C121.869 28.864 122.157 28.336 122.157 27.696C122.157 26.928 121.757 26.368 120.957 26.016C120.157 25.632 118.861 25.216 117.069 24.768C115.149 24.32 113.549 23.856 112.269 23.376C110.989 22.864 109.885 22.08 108.957 21.024C108.029 19.936 107.565 18.48 107.565 16.656C107.565 15.12 107.981 13.728 108.813 12.48C109.677 11.2 110.925 10.192 112.557 9.456C114.221 8.72 116.189 8.352 118.461 8.352C121.821 8.352 124.461 9.184 126.381 10.848C128.333 12.512 129.453 14.72 129.741 17.472H122.157C122.029 16.544 121.613 15.808 120.909 15.264C120.237 14.72 119.341 14.448 118.221 14.448C117.261 14.448 116.525 14.64 116.013 15.024C115.501 15.376 115.245 15.872 115.245 16.512C115.245 17.28 115.645 17.856 116.445 18.24C117.277 18.624 118.557 19.008 120.285 19.392C122.269 19.904 123.885 20.416 125.133 20.928C126.381 21.408 127.469 22.208 128.397 23.328C129.357 24.416 129.853 25.888 129.885 27.744C129.885 29.312 129.437 30.72 128.541 31.968C127.677 33.184 126.413 34.144 124.749 34.848C123.117 35.552 121.213 35.904 119.037 35.904Z" fill="#131728"></path>
</svg>
