<svg xmlns="http://www.w3.org/2000/svg" fill="none" viewBox="0 0 207 51" height="51" width="207">
<path fill="#222222" d="M19.056 50L11.04 38.624V50H2.832V14.48H11.04V33.968L19.056 23.216H28.704L17.904 36.608L28.944 50H19.056ZM39.7174 22.88C41.7654 22.88 43.5254 23.344 44.9974 24.272C46.4694 25.2 47.5574 26.464 48.2614 28.064V23.216H56.4214V50H48.2614V45.152C47.5574 46.752 46.4694 48.016 44.9974 48.944C43.5254 49.872 41.7654 50.336 39.7174 50.336C37.5094 50.336 35.5254 49.792 33.7654 48.704C32.0374 47.584 30.6614 45.984 29.6374 43.904C28.6454 41.824 28.1494 39.392 28.1494 36.608C28.1494 33.792 28.6454 31.36 29.6374 29.312C30.6614 27.232 32.0374 25.648 33.7654 24.56C35.5254 23.44 37.5094 22.88 39.7174 22.88ZM42.3574 30.08C40.5974 30.08 39.1734 30.656 38.0854 31.808C37.0294 32.96 36.5014 34.56 36.5014 36.608C36.5014 38.656 37.0294 40.256 38.0854 41.408C39.1734 42.56 40.5974 43.136 42.3574 43.136C44.0854 43.136 45.4934 42.544 46.5814 41.36C47.7014 40.176 48.2614 38.592 48.2614 36.608C48.2614 34.592 47.7014 33.008 46.5814 31.856C45.4934 30.672 44.0854 30.08 42.3574 30.08ZM67.8806 14.48V50H59.6726V14.48H67.8806ZM79.3556 14.48V50H71.1476V14.48H79.3556ZM108.063 35.888C108.063 36.56 107.983 37.296 107.823 38.096H89.2466C89.3426 40.112 89.8546 41.568 90.7826 42.464C91.7106 43.328 92.8946 43.76 94.3346 43.76C95.5506 43.76 96.5586 43.456 97.3586 42.848C98.1586 42.24 98.6866 41.456 98.9426 40.496H107.631C107.279 42.384 106.511 44.08 105.327 45.584C104.143 47.056 102.639 48.224 100.815 49.088C98.9906 49.92 96.9586 50.336 94.7186 50.336C92.0946 50.336 89.7586 49.792 87.7106 48.704C85.6946 47.584 84.1106 45.984 82.9586 43.904C81.8066 41.824 81.2306 39.392 81.2306 36.608C81.2306 33.792 81.7906 31.36 82.9106 29.312C84.0626 27.232 85.6626 25.648 87.7106 24.56C89.7586 23.44 92.0946 22.88 94.7186 22.88C97.3746 22.88 99.7106 23.424 101.727 24.512C103.743 25.6 105.295 27.136 106.383 29.12C107.503 31.072 108.063 33.328 108.063 35.888ZM99.7586 34.64C99.7906 32.88 99.3106 31.568 98.3186 30.704C97.3586 29.808 96.1586 29.36 94.7186 29.36C93.2146 29.36 91.9666 29.808 90.9746 30.704C89.9826 31.6 89.4226 32.912 89.2946 34.64H99.7586ZM119.685 22.88C123.077 22.88 125.781 23.728 127.797 25.424C129.845 27.12 131.125 29.36 131.637 32.144H123.957C123.733 31.056 123.221 30.208 122.421 29.6C121.653 28.96 120.677 28.64 119.493 28.64C118.565 28.64 117.861 28.848 117.381 29.264C116.901 29.648 116.661 30.208 116.661 30.944C116.661 31.776 117.093 32.4 117.957 32.816C118.853 33.232 120.245 33.648 122.133 34.064C124.181 34.544 125.861 35.04 127.173 35.552C128.485 36.032 129.621 36.832 130.581 37.952C131.541 39.072 132.021 40.576 132.021 42.464C132.021 44 131.605 45.36 130.773 46.544C129.941 47.728 128.741 48.656 127.173 49.328C125.605 50 123.749 50.336 121.605 50.336C117.989 50.336 115.093 49.536 112.917 47.936C110.741 46.336 109.413 44.048 108.933 41.072H116.853C116.981 42.224 117.461 43.104 118.293 43.712C119.157 44.32 120.261 44.624 121.605 44.624C122.533 44.624 123.237 44.416 123.717 44C124.197 43.552 124.437 42.976 124.437 42.272C124.437 41.344 123.989 40.688 123.093 40.304C122.229 39.888 120.805 39.456 118.821 39.008C116.837 38.592 115.205 38.144 113.925 37.664C112.645 37.184 111.541 36.416 110.613 35.36C109.685 34.272 109.221 32.8 109.221 30.944C109.221 28.544 110.133 26.608 111.957 25.136C113.781 23.632 116.357 22.88 119.685 22.88Z"></path>
<rect fill="#FF3E37" rx="12" height="24" width="70" y="3" x="118"></rect>
<path fill="white" d="M139.774 11.286L137.632 19H135.868L133.964 13.036L132.032 19H130.282L128.14 11.286H129.75L131.22 17.53L133.152 11.286H134.832L136.792 17.53L138.262 11.286H139.774ZM143.689 11.188C144.435 11.188 145.107 11.3467 145.705 11.664C146.302 11.9813 146.769 12.4387 147.105 13.036C147.441 13.6333 147.609 14.3333 147.609 15.136C147.609 15.948 147.441 16.6527 147.105 17.25C146.769 17.8473 146.302 18.3047 145.705 18.622C145.107 18.9393 144.435 19.098 143.689 19.098C142.942 19.098 142.27 18.9393 141.673 18.622C141.085 18.3047 140.618 17.8473 140.273 17.25C139.937 16.6433 139.769 15.9387 139.769 15.136C139.769 14.3333 139.937 13.6333 140.273 13.036C140.618 12.4387 141.085 11.9813 141.673 11.664C142.27 11.3467 142.942 11.188 143.689 11.188ZM143.689 12.574C143.278 12.574 142.9 12.6673 142.555 12.854C142.209 13.0407 141.929 13.33 141.715 13.722C141.509 14.1047 141.407 14.576 141.407 15.136C141.407 15.7053 141.509 16.1813 141.715 16.564C141.929 16.9467 142.209 17.2313 142.555 17.418C142.9 17.6047 143.278 17.698 143.689 17.698C144.099 17.698 144.477 17.6047 144.823 17.418C145.168 17.2313 145.443 16.9467 145.649 16.564C145.863 16.1813 145.971 15.7053 145.971 15.136C145.971 14.576 145.863 14.1047 145.649 13.722C145.443 13.33 145.168 13.0407 144.823 12.854C144.477 12.6673 144.099 12.574 143.689 12.574ZM158.089 11.16C159.004 11.16 159.732 11.4493 160.273 12.028C160.824 12.6067 161.099 13.4327 161.099 14.506V19H159.503V14.674C159.503 14.002 159.335 13.484 158.999 13.12C158.663 12.7467 158.201 12.56 157.613 12.56C156.988 12.56 156.488 12.7607 156.115 13.162C155.751 13.554 155.569 14.1327 155.569 14.898V19H153.973V14.674C153.973 14.002 153.805 13.484 153.469 13.12C153.133 12.7467 152.671 12.56 152.083 12.56C151.458 12.56 150.958 12.7607 150.585 13.162C150.221 13.554 150.039 14.1327 150.039 14.898V19H148.443V11.286H150.039V12.896C150.235 12.336 150.562 11.9067 151.019 11.608C151.476 11.3093 152.013 11.16 152.629 11.16C153.273 11.16 153.828 11.3187 154.295 11.636C154.771 11.9533 155.116 12.4107 155.331 13.008C155.555 12.4293 155.914 11.9767 156.409 11.65C156.904 11.3233 157.464 11.16 158.089 11.16ZM169.43 14.772C169.43 15.0333 169.412 15.262 169.374 15.458H163.438C163.466 16.2513 163.686 16.8393 164.096 17.222C164.507 17.6047 165.016 17.796 165.622 17.796C166.154 17.796 166.602 17.6607 166.966 17.39C167.34 17.1193 167.568 16.76 167.652 16.312H169.36C169.258 16.8533 169.043 17.334 168.716 17.754C168.39 18.174 167.965 18.5053 167.442 18.748C166.92 18.9813 166.336 19.098 165.692 19.098C164.946 19.098 164.283 18.9393 163.704 18.622C163.135 18.3047 162.687 17.8473 162.36 17.25C162.034 16.6527 161.87 15.948 161.87 15.136C161.87 14.3333 162.034 13.6333 162.36 13.036C162.687 12.4387 163.135 11.9813 163.704 11.664C164.283 11.3467 164.946 11.188 165.692 11.188C166.448 11.188 167.106 11.3467 167.666 11.664C168.236 11.972 168.67 12.4013 168.968 12.952C169.276 13.4933 169.43 14.1 169.43 14.772ZM167.82 14.73C167.839 14.226 167.75 13.806 167.554 13.47C167.368 13.1247 167.106 12.8727 166.77 12.714C166.444 12.546 166.084 12.462 165.692 12.462C165.067 12.462 164.544 12.6533 164.124 13.036C163.704 13.4187 163.476 13.9833 163.438 14.73H167.82ZM174.583 11.16C175.479 11.16 176.198 11.4493 176.739 12.028C177.281 12.6067 177.551 13.4327 177.551 14.506V19H175.955V14.674C175.955 13.9833 175.778 13.4513 175.423 13.078C175.069 12.6953 174.583 12.504 173.967 12.504C173.333 12.504 172.824 12.7093 172.441 13.12C172.059 13.5213 171.867 14.114 171.867 14.898V19H170.271V11.286H171.867V12.98C172.073 12.4013 172.418 11.9533 172.903 11.636C173.389 11.3187 173.949 11.16 174.583 11.16Z"></path>
</svg>
